<svg width="245" height="86" viewBox="0 0 245 86" fill="none" xmlns="http://www.w3.org/2000/svg">
<circle cx="26.2554" cy="32.2651" r="10.5162" transform="rotate(-45 26.2554 32.2651)" fill="#3F8DB1"/>
<circle cx="49.022" cy="55.0315" r="10.5162" transform="rotate(-45 49.022 55.0315)" fill="#3F8DB1"/>
<circle cx="26.2556" cy="55.032" r="10.5162" transform="rotate(-45 26.2556 55.032)" fill="#9AC101"/>
<circle cx="48.5005" cy="31.7441" r="10.5162" transform="rotate(-45 48.5005 31.7441)" fill="#9AC101"/>
<path d="M85.2031 33.5033L85.2031 50.3513L81.0991 50.3513L81.0991 33.5033L85.2031 33.5033ZM96.3372 36.8153C97.9052 36.8153 99.1532 37.3273 100.081 38.3513C101.025 39.3593 101.497 40.7513 101.497 42.5273L101.497 50.3513L97.4172 50.3513L97.4172 43.0793C97.4172 42.1833 97.1852 41.4873 96.7212 40.9913C96.2572 40.4953 95.6332 40.2473 94.8492 40.2473C94.0652 40.2473 93.4412 40.4953 92.9772 40.9913C92.5132 41.4873 92.2812 42.1833 92.2812 43.0793L92.2812 50.3513L88.1772 50.3513L88.1772 36.9593L92.2812 36.9593V38.7353C92.6972 38.1433 93.2572 37.6793 93.9612 37.3433C94.6652 36.9913 95.4572 36.8153 96.3372 36.8153ZM110.373 46.5113L113.277 36.9593L117.645 36.9593L112.893 50.3513L107.829 50.3513L103.077 36.9593L107.469 36.9593L110.373 46.5113ZM131.997 43.4393C131.997 43.8233 131.973 44.2233 131.925 44.6393L122.637 44.6393C122.701 45.4713 122.965 46.1113 123.429 46.5593C123.909 46.9913 124.493 47.2073 125.181 47.2073C126.205 47.2073 126.917 46.7753 127.317 45.9113L131.685 45.9113C131.461 46.7913 131.053 47.5833 130.461 48.2873C129.885 48.9913 129.157 49.5433 128.277 49.9433C127.397 50.3433 126.413 50.5433 125.325 50.5433C124.013 50.5433 122.845 50.2633 121.821 49.7033C120.797 49.1433 119.997 48.3433 119.421 47.3033C118.845 46.2633 118.557 45.0473 118.557 43.6553C118.557 42.2633 118.837 41.0473 119.397 40.0073C119.973 38.9673 120.773 38.1673 121.797 37.6073C122.821 37.0473 123.997 36.7673 125.325 36.7673C126.621 36.7673 127.773 37.0393 128.781 37.5833C129.789 38.1273 130.573 38.9033 131.133 39.9113C131.709 40.9193 131.997 42.0953 131.997 43.4393ZM127.797 42.3593C127.797 41.6553 127.557 41.0953 127.077 40.6793C126.597 40.2633 125.997 40.0553 125.277 40.0553C124.589 40.0553 124.005 40.2553 123.525 40.6553C123.061 41.0553 122.773 41.6233 122.661 42.3593L127.797 42.3593ZM139.61 50.5433C138.442 50.5433 137.402 50.3433 136.49 49.9433C135.578 49.5433 134.858 48.9993 134.33 48.3113C133.802 47.6073 133.506 46.8233 133.442 45.9593L137.498 45.9593C137.546 46.4233 137.762 46.7993 138.146 47.0873C138.53 47.3753 139.002 47.5193 139.562 47.5193C140.074 47.5193 140.466 47.4233 140.738 47.2313C141.026 47.0233 141.17 46.7593 141.17 46.4393C141.17 46.0553 140.97 45.7753 140.57 45.5993C140.17 45.4073 139.522 45.1993 138.626 44.9753C137.666 44.7513 136.866 44.5193 136.226 44.2793C135.586 44.0233 135.034 43.6313 134.57 43.1033C134.106 42.5593 133.874 41.8313 133.874 40.9193C133.874 40.1513 134.082 39.4553 134.498 38.8313C134.93 38.1913 135.554 37.6873 136.37 37.3193C137.202 36.9513 138.186 36.7673 139.322 36.7673C141.002 36.7673 142.322 37.1833 143.282 38.0153C144.258 38.8473 144.818 39.9513 144.962 41.3273L141.17 41.3273C141.106 40.8633 140.898 40.4953 140.546 40.2233C140.21 39.9513 139.762 39.8153 139.202 39.8153C138.722 39.8153 138.354 39.9113 138.098 40.1033C137.842 40.2793 137.714 40.5273 137.714 40.8473C137.714 41.2313 137.914 41.5193 138.314 41.7113C138.73 41.9033 139.37 42.0953 140.234 42.2873C141.226 42.5433 142.034 42.7993 142.658 43.0553C143.282 43.2953 143.826 43.6953 144.29 44.2553C144.77 44.7993 145.018 45.5353 145.034 46.4633C145.034 47.2473 144.81 47.9513 144.362 48.5753C143.93 49.1833 143.298 49.6633 142.466 50.0153C141.65 50.3673 140.698 50.5433 139.61 50.5433ZM155.008 46.8713V50.3513L152.92 50.3513C151.432 50.3513 150.272 49.9913 149.44 49.2713C148.608 48.5353 148.192 47.3433 148.192 45.6953L148.192 40.3673H146.56L146.56 36.9593H148.192V33.6953L152.296 33.6953L152.296 36.9593L154.984 36.9593V40.3673L152.296 40.3673V45.7433C152.296 46.1433 152.392 46.4313 152.584 46.6073C152.776 46.7833 153.096 46.8713 153.544 46.8713L155.008 46.8713Z" fill="#132D80"/>
<path d="M163.39 50.5193C162.158 50.5193 161.054 50.3193 160.078 49.9193C159.102 49.5193 158.318 48.9273 157.726 48.1433C157.15 47.3593 156.846 46.4153 156.814 45.3113L161.182 45.3113C161.246 45.9353 161.462 46.4153 161.83 46.7513C162.198 47.0713 162.678 47.2313 163.27 47.2313C163.878 47.2313 164.358 47.0953 164.71 46.8233C165.062 46.5353 165.238 46.1433 165.238 45.6473C165.238 45.2313 165.094 44.8873 164.806 44.6153C164.534 44.3433 164.19 44.1193 163.774 43.9433C163.374 43.7673 162.798 43.5673 162.046 43.3433C160.958 43.0073 160.07 42.6713 159.382 42.3353C158.694 41.9993 158.102 41.5033 157.606 40.8473C157.11 40.1913 156.862 39.3353 156.862 38.2793C156.862 36.7113 157.43 35.4873 158.566 34.6073C159.702 33.7113 161.182 33.2633 163.006 33.2633C164.862 33.2633 166.358 33.7113 167.494 34.6073C168.63 35.4873 169.238 36.7193 169.318 38.3033L164.878 38.3033C164.846 37.7593 164.646 37.3353 164.278 37.0313C163.91 36.7113 163.438 36.5513 162.862 36.5513C162.366 36.5513 161.966 36.6873 161.662 36.9593C161.358 37.2153 161.206 37.5913 161.206 38.0873C161.206 38.6313 161.462 39.0553 161.974 39.3593C162.486 39.6633 163.286 39.9913 164.374 40.3433C165.462 40.7113 166.342 41.0633 167.014 41.3993C167.702 41.7353 168.294 42.2233 168.79 42.8633C169.286 43.5033 169.534 44.3273 169.534 45.3353C169.534 46.2953 169.286 47.1673 168.79 47.9513C168.31 48.7353 167.606 49.3593 166.678 49.8233C165.75 50.2873 164.654 50.5193 163.39 50.5193ZM184.684 43.4393C184.684 43.8233 184.66 44.2233 184.612 44.6393L175.324 44.6393C175.388 45.4713 175.652 46.1113 176.116 46.5593C176.596 46.9913 177.18 47.2073 177.868 47.2073C178.892 47.2073 179.604 46.7753 180.004 45.9113L184.372 45.9113C184.148 46.7913 183.74 47.5833 183.148 48.2873C182.572 48.9913 181.844 49.5433 180.964 49.9433C180.084 50.3433 179.1 50.5433 178.012 50.5433C176.7 50.5433 175.532 50.2633 174.508 49.7033C173.484 49.1433 172.684 48.3433 172.108 47.3033C171.532 46.2633 171.244 45.0473 171.244 43.6553C171.244 42.2633 171.524 41.0473 172.084 40.0073C172.66 38.9673 173.46 38.1673 174.484 37.6073C175.508 37.0473 176.684 36.7673 178.012 36.7673C179.308 36.7673 180.46 37.0393 181.468 37.5833C182.476 38.1273 183.26 38.9033 183.82 39.9113C184.396 40.9193 184.684 42.0953 184.684 43.4393ZM180.484 42.3593C180.484 41.6553 180.244 41.0953 179.764 40.6793C179.284 40.2633 178.684 40.0553 177.964 40.0553C177.276 40.0553 176.692 40.2553 176.212 40.6553C175.748 41.0553 175.46 41.6233 175.348 42.3593L180.484 42.3593ZM199.473 43.4393C199.473 43.8233 199.449 44.2233 199.401 44.6393L190.113 44.6393C190.177 45.4713 190.441 46.1113 190.905 46.5593C191.385 46.9913 191.969 47.2073 192.657 47.2073C193.681 47.2073 194.393 46.7753 194.793 45.9113L199.161 45.9113C198.937 46.7913 198.529 47.5833 197.937 48.2873C197.361 48.9913 196.633 49.5433 195.753 49.9433C194.873 50.3433 193.889 50.5433 192.801 50.5433C191.489 50.5433 190.321 50.2633 189.297 49.7033C188.273 49.1433 187.473 48.3433 186.897 47.3033C186.321 46.2633 186.033 45.0473 186.033 43.6553C186.033 42.2633 186.313 41.0473 186.873 40.0073C187.449 38.9673 188.249 38.1673 189.273 37.6073C190.297 37.0473 191.473 36.7673 192.801 36.7673C194.097 36.7673 195.249 37.0393 196.257 37.5833C197.265 38.1273 198.049 38.9033 198.609 39.9113C199.185 40.9193 199.473 42.0953 199.473 43.4393ZM195.273 42.3593C195.273 41.6553 195.033 41.0953 194.553 40.6793C194.073 40.2633 193.473 40.0553 192.753 40.0553C192.065 40.0553 191.481 40.2553 191.001 40.6553C190.537 41.0553 190.249 41.6233 190.137 42.3593L195.273 42.3593ZM200.822 43.6313C200.822 42.2553 201.078 41.0473 201.59 40.0073C202.118 38.9673 202.83 38.1673 203.726 37.6073C204.622 37.0473 205.622 36.7673 206.726 36.7673C207.606 36.7673 208.406 36.9513 209.126 37.3193C209.862 37.6873 210.438 38.1833 210.854 38.8073L210.854 32.5913L214.958 32.5913L214.958 50.3513L210.854 50.3513V48.4313C210.47 49.0713 209.918 49.5833 209.198 49.9673C208.494 50.3513 207.67 50.5433 206.726 50.5433C205.622 50.5433 204.622 50.2633 203.726 49.7033C202.83 49.1273 202.118 48.3193 201.59 47.2793C201.078 46.2233 200.822 45.0073 200.822 43.6313ZM210.854 43.6553C210.854 42.6313 210.566 41.8233 209.99 41.2313C209.43 40.6393 208.742 40.3433 207.926 40.3433C207.11 40.3433 206.414 40.6393 205.838 41.2313C205.278 41.8073 204.998 42.6073 204.998 43.6313C204.998 44.6553 205.278 45.4713 205.838 46.0793C206.414 46.6713 207.11 46.9673 207.926 46.9673C208.742 46.9673 209.43 46.6713 209.99 46.0793C210.566 45.4873 210.854 44.6793 210.854 43.6553Z" fill="#9FC410"/>
</svg>
