<svg width="22" height="21" viewBox="0 0 22 21" fill="none" xmlns="http://www.w3.org/2000/svg">
<g clip-path="url(#clip0_68_2881)">
<path d="M15.1812 2.41968H6.28827C3.83255 2.41968 1.8418 4.28516 1.8418 6.58635V14.9197C1.8418 17.2209 3.83255 19.0863 6.28827 19.0863H15.1812C17.6369 19.0863 19.6277 17.2209 19.6277 14.9197V6.58635C19.6277 4.28516 17.6369 2.41968 15.1812 2.41968Z" stroke="white" stroke-width="2" stroke-linecap="round" stroke-linejoin="round"/>
<path d="M14.2917 10.2279C14.4015 10.9215 14.275 11.6298 13.9304 12.2521C13.5858 12.8744 13.0406 13.3791 12.3723 13.6943C11.704 14.0095 10.9466 14.1193 10.2079 14.0079C9.46917 13.8965 8.78676 13.5697 8.2577 13.0739C7.72864 12.5781 7.37987 11.9387 7.261 11.2464C7.14213 10.5542 7.25922 9.84451 7.59561 9.21825C7.93199 8.59198 8.47055 8.08105 9.13467 7.75814C9.7988 7.43522 10.5547 7.31676 11.2948 7.4196C12.0497 7.52451 12.7486 7.85416 13.2883 8.35986C13.828 8.86556 14.1798 9.5205 14.2917 10.2279Z" stroke="white" stroke-width="2" stroke-linecap="round" stroke-linejoin="round"/>
<path d="M15.6255 6.16968H15.6351" stroke="white" stroke-width="2" stroke-linecap="round" stroke-linejoin="round"/>
</g>
<defs>
<clipPath id="clip0_68_2881">
<rect width="21.3431" height="20" fill="white" transform="translate(0.0629883 0.75293)"/>
</clipPath>
</defs>
</svg>
