<svg width="22" height="21" viewBox="0 0 22 21" fill="none" xmlns="http://www.w3.org/2000/svg">
<path d="M20.7359 3.25301C19.8843 3.81591 18.9414 4.24643 17.9435 4.52801C17.4079 3.95093 16.6961 3.54192 15.9044 3.35628C15.1126 3.17064 14.2791 3.21734 13.5166 3.49005C12.7541 3.76277 12.0994 4.24834 11.641 4.88111C11.1826 5.51387 10.9427 6.26329 10.9536 7.02801V7.86134C9.39081 7.89931 7.84223 7.57452 6.4458 6.91588C5.04937 6.25724 3.84844 5.2852 2.94998 4.08634C2.94998 4.08634 -0.607202 11.5863 7.39645 14.9197C5.56497 16.0846 3.3832 16.6688 1.17139 16.5863C9.17504 20.753 18.9573 16.5863 18.9573 7.00301C18.9565 6.77089 18.9326 6.53934 18.8861 6.31134C19.7937 5.47259 20.4342 4.4136 20.7359 3.25301Z" fill="white"/>
</svg>
