<svg width="23" height="21" viewBox="0 0 23 21" fill="none" xmlns="http://www.w3.org/2000/svg">
<path fill-rule="evenodd" clip-rule="evenodd" d="M20.2646 5.05235C20.5675 5.34499 20.7827 5.70736 20.8883 6.10285C21.1704 7.56843 21.3074 9.05531 21.2974 10.5445C21.303 12.0115 21.1661 13.4758 20.8883 14.9195C20.7827 15.315 20.5675 15.6774 20.2646 15.97C19.9617 16.2626 19.5817 16.4752 19.1631 16.5862C17.6335 16.9695 11.5152 16.9695 11.5152 16.9695C11.5152 16.9695 5.39682 16.9695 3.86724 16.5862C3.45711 16.481 3.08286 16.2785 2.78065 15.9982C2.47843 15.718 2.25847 15.3694 2.14201 14.9862C1.85989 13.5206 1.72295 12.0337 1.73293 10.5445C1.72514 9.06644 1.86207 7.59081 2.14201 6.13618C2.24764 5.74069 2.46279 5.37832 2.76571 5.08569C3.06863 4.79305 3.4486 4.5805 3.86724 4.46951C5.39682 4.08618 11.5152 4.08618 11.5152 4.08618C11.5152 4.08618 17.6335 4.08618 19.1631 4.43618C19.5817 4.54717 19.9617 4.75972 20.2646 5.05235ZM14.6281 10.5445L9.51462 13.2695V7.81954L14.6281 10.5445Z" fill="white"/>
</svg>
