<svg width="42" height="47" viewBox="0 0 42 47" fill="none" xmlns="http://www.w3.org/2000/svg">
<path d="M21.2783 18.2169C31.9254 18.2169 40.5566 14.5178 40.5566 9.95476C40.5566 5.39171 31.9254 1.69263 21.2783 1.69263C10.6312 1.69263 2 5.39171 2 9.95476C2 14.5178 10.6312 18.2169 21.2783 18.2169Z" stroke="#367FAC" stroke-width="2.3"/>
<path d="M2.00049 26.4792C2.00049 26.4792 2.00049 32.9324 2.00049 37.4954C2.00049 42.0585 10.6317 45.7576 21.2785 45.7576C31.9255 45.7576 40.5575 42.0585 40.5575 37.4954C40.5575 35.2178 40.5575 26.4792 40.5575 26.4792" stroke="#367FAC" stroke-width="2.3" stroke-linecap="square"/>
<path d="M2.00049 9.95483C2.00049 9.95483 2.00049 19.162 2.00049 23.725C2.00049 28.2881 10.6317 31.9872 21.2785 31.9872C31.9255 31.9872 40.5575 28.2881 40.5575 23.725C40.5575 21.4474 40.5575 9.95483 40.5575 9.95483" stroke="#367FAC" stroke-width="2.3"/>
</svg>
