<svg width="64" height="65" viewBox="0 0 64 65" fill="none" xmlns="http://www.w3.org/2000/svg">
<rect y="0.828125" width="64" height="64" rx="32" fill="white" fill-opacity="0.08"/>
<path opacity="0.2" d="M32 19.8281C29.3478 19.8281 26.8043 20.8817 24.9289 22.7571C23.0536 24.6324 22 27.176 22 29.8281C22 38.8281 32 45.8281 32 45.8281C32 45.8281 42 38.8281 42 29.8281C42 27.176 40.9464 24.6324 39.0711 22.7571C37.1957 20.8817 34.6522 19.8281 32 19.8281ZM32 33.8281C31.2089 33.8281 30.4355 33.5935 29.7777 33.154C29.1199 32.7145 28.6072 32.0898 28.3045 31.3589C28.0017 30.628 27.9225 29.8237 28.0769 29.0478C28.2312 28.2718 28.6122 27.5591 29.1716 26.9997C29.731 26.4403 30.4437 26.0593 31.2196 25.905C31.9956 25.7506 32.7998 25.8299 33.5307 26.1326C34.2616 26.4354 34.8864 26.948 35.3259 27.6058C35.7654 28.2636 36 29.037 36 29.8281C36 30.889 35.5786 31.9064 34.8284 32.6565C34.0783 33.4067 33.0609 33.8281 32 33.8281Z" fill="white"/>
<path d="M23 45.8281H41" stroke="white" stroke-width="2" stroke-linecap="round" stroke-linejoin="round"/>
<path d="M32 33.8281C34.2091 33.8281 36 32.0373 36 29.8281C36 27.619 34.2091 25.8281 32 25.8281C29.7909 25.8281 28 27.619 28 29.8281C28 32.0373 29.7909 33.8281 32 33.8281Z" stroke="white" stroke-width="2" stroke-linecap="round" stroke-linejoin="round"/>
<path d="M42 29.8281C42 38.8281 32 45.8281 32 45.8281C32 45.8281 22 38.8281 22 29.8281C22 27.176 23.0536 24.6324 24.9289 22.7571C26.8043 20.8817 29.3478 19.8281 32 19.8281C34.6522 19.8281 37.1957 20.8817 39.0711 22.7571C40.9464 24.6324 42 27.176 42 29.8281V29.8281Z" stroke="white" stroke-width="2" stroke-linecap="round" stroke-linejoin="round"/>
</svg>
