<svg width="64" height="65" viewBox="0 0 64 65" fill="none" xmlns="http://www.w3.org/2000/svg">
<rect y="0.828125" width="64" height="64" rx="32" fill="white" fill-opacity="0.08"/>
<path opacity="0.2" d="M27.5595 32.4299C28.5968 34.5506 30.3158 36.2618 32.4412 37.2894C32.5967 37.3631 32.7687 37.395 32.9403 37.382C33.1119 37.369 33.2771 37.3116 33.4198 37.2154L36.5492 35.1286C36.6877 35.0363 36.8469 34.98 37.0126 34.9648C37.1782 34.9495 37.3451 34.9759 37.498 35.0414L43.3526 37.5505C43.5515 37.635 43.7175 37.7819 43.8257 37.9689C43.9339 38.156 43.9783 38.3731 43.9524 38.5876C43.7673 40.0356 43.0608 41.3665 41.9652 42.3312C40.8695 43.2958 39.4598 43.8279 38 43.828C33.4913 43.828 29.1673 42.0369 25.9792 38.8488C22.7911 35.6607 21 31.3367 21 26.828C21.0001 25.3682 21.5322 23.9585 22.4969 22.8628C23.4615 21.7672 24.7924 21.0607 26.2404 20.8756C26.4549 20.8497 26.672 20.8941 26.8591 21.0023C27.0461 21.1105 27.193 21.2765 27.2775 21.4754L29.7888 27.3351C29.8537 27.4867 29.8802 27.652 29.8658 27.8163C29.8514 27.9805 29.7967 28.1387 29.7064 28.2767L27.6268 31.4541C27.5322 31.5971 27.4762 31.7621 27.4644 31.9331C27.4526 32.1042 27.4854 32.2753 27.5595 32.4299Z" fill="white"/>
<path d="M27.5595 32.4299C28.5968 34.5506 30.3158 36.2618 32.4412 37.2894C32.5967 37.3631 32.7687 37.395 32.9403 37.382C33.1119 37.369 33.2771 37.3116 33.4198 37.2154L36.5492 35.1286C36.6877 35.0363 36.8469 34.98 37.0126 34.9648C37.1782 34.9495 37.3451 34.9759 37.498 35.0414L43.3526 37.5505C43.5515 37.635 43.7175 37.7819 43.8257 37.9689C43.9339 38.156 43.9783 38.3731 43.9524 38.5876C43.7673 40.0356 43.0608 41.3665 41.9652 42.3312C40.8695 43.2958 39.4598 43.8279 38 43.828C33.4913 43.828 29.1673 42.0369 25.9792 38.8488C22.7911 35.6607 21 31.3367 21 26.828C21.0001 25.3682 21.5322 23.9585 22.4969 22.8628C23.4615 21.7672 24.7924 21.0607 26.2404 20.8756C26.4549 20.8497 26.672 20.8941 26.8591 21.0023C27.0461 21.1105 27.193 21.2765 27.2775 21.4754L29.7888 27.3351C29.8537 27.4867 29.8802 27.652 29.8658 27.8163C29.8514 27.9805 29.7967 28.1387 29.7064 28.2767L27.6268 31.4541C27.5322 31.5971 27.4762 31.7621 27.4644 31.9331C27.4526 32.1042 27.4854 32.2753 27.5595 32.4299V32.4299Z" stroke="white" stroke-width="2" stroke-linecap="round" stroke-linejoin="round"/>
<path d="M35.9272 21.8281C37.6225 22.284 39.1682 23.1774 40.4095 24.4187C41.6508 25.66 42.5441 27.2057 43.0001 28.901" stroke="white" stroke-width="2" stroke-linecap="round" stroke-linejoin="round"/>
<path d="M34.8916 25.6929C35.9087 25.9664 36.8362 26.5024 37.5809 27.2472C38.3257 27.992 38.8617 28.9194 39.1353 29.9366" stroke="white" stroke-width="2" stroke-linecap="round" stroke-linejoin="round"/>
</svg>
